<svg xmlns="http://www.w3.org/2000/svg" viewBox="0 0 32 32">
  <defs>
    <linearGradient id="grad" x1="0" y1="0" x2="1" y2="1">
      <stop offset="0%" stop-color="#0EA5E9"/>
      <stop offset="100%" stop-color="#10B981"/>
    </linearGradient>
  </defs>
  <!-- Gradient circle background -->
  <circle cx="16" cy="16" r="16" fill="url(#grad)"/>
  <!-- Lucide Stethoscope icon, scaled from 24×24 to 14×14 and centered -->
  <g transform="translate(9,9) scale(0.5833)" stroke="white" stroke-width="2.1" stroke-linecap="round" stroke-linejoin="round" fill="none">
    <path d="M4.8 2.3A.3.3 0 1 0 5 2H4a2 2 0 0 0-2 2v5a6 6 0 0 0 6 6v0a6 6 0 0 0 6-6V4a2 2 0 0 0-2-2h-1a.2.2 0 1 0 .3.3"/>
    <path d="M8 15v1a6 6 0 0 0 6 6v0a6 6 0 0 0 6-6v-4"/>
    <circle cx="20" cy="10" r="2"/>
  </g>
</svg>
